<?xml version="1.0" encoding="utf-8"?>
<!-- Generator: Adobe Illustrator 24.3.0, SVG Export Plug-In . SVG Version: 6.00 Build 0)  -->
<svg version="1.1" id="livetype" xmlns="http://www.w3.org/2000/svg" xmlns:xlink="http://www.w3.org/1999/xlink" x="0px" y="0px"
	 viewBox="0 0 136 41" style="enable-background:new 0 0 136 41;" xml:space="preserve">
<style type="text/css">
	.st0{fill:#FFFFFF;stroke:#000000;stroke-miterlimit:10;}
</style>
<g>
	<path class="st0" d="M8.4,40.5c-0.3,0-0.6,0-0.9,0c-0.7,0-1.3-0.1-1.9-0.2c-0.6-0.1-1.2-0.3-1.7-0.6c-0.5-0.3-1-0.6-1.5-1.1
		c-0.4-0.4-0.8-0.9-1.1-1.5c-0.3-0.5-0.5-1.1-0.6-1.7c-0.1-0.6-0.2-1.3-0.2-2c0-0.2,0-1,0-1V8.4c0,0,0-0.7,0-0.9
		c0-0.7,0.1-1.3,0.2-2C0.8,4.9,1,4.3,1.3,3.8c0.3-0.5,0.6-1,1.1-1.5c0.4-0.4,0.9-0.8,1.5-1.1C4.3,1,4.9,0.8,5.5,0.7
		c0.6-0.1,1.3-0.2,2-0.2l0.9,0h119.2l1,0c0.6,0,1.3,0.1,1.9,0.2c0.6,0.1,1.2,0.3,1.7,0.6c1.1,0.6,2,1.4,2.5,2.5
		c0.3,0.5,0.5,1.1,0.6,1.7c0.1,0.7,0.2,1.3,0.2,2c0,0.3,0,0.6,0,0.9c0,0.4,0,0.8,0,1.1v21.9c0,0.4,0,0.8,0,1.1c0,0.3,0,0.7,0,1
		c0,0.6-0.1,1.3-0.2,1.9c-0.1,0.6-0.3,1.2-0.6,1.7c-0.3,0.5-0.6,1-1.1,1.4c-0.4,0.4-0.9,0.8-1.5,1.1c-0.5,0.3-1.1,0.5-1.7,0.6
		c-0.6,0.1-1.3,0.2-2,0.2c-0.3,0-0.6,0-0.9,0l-1.1,0L8.4,40.5z"/>
	<g id="_Group_2">
		<g id="_Group_3">
			<path id="_Path_" d="M31.4,20.8c0-1.8,1-3.4,2.5-4.3c-1-1.4-2.5-2.2-4.2-2.3c-1.8-0.2-3.5,1-4.3,1c-0.9,0-2.3-1-3.8-1
				c-2,0.1-3.7,1.1-4.7,2.9c-2,3.5-0.5,8.6,1.4,11.5c1,1.4,2.1,2.9,3.6,2.9c1.4-0.1,2-0.9,3.7-0.9c1.7,0,2.2,0.9,3.8,0.9
				c1.6,0,2.5-1.4,3.5-2.8c0.7-1,1.2-2.1,1.6-3.2C32.6,24.6,31.4,22.8,31.4,20.8z"/>
			<path id="_Path_2" d="M28.5,12.3c0.8-1,1.3-2.3,1.2-3.6c-1.3,0.1-2.5,0.8-3.4,1.7c-0.8,1-1.3,2.2-1.2,3.5
				C26.5,14,27.7,13.4,28.5,12.3z"/>
		</g>
	</g>
	<g>
		<path d="M49.7,27.9h-4.9l-1.2,3.5h-2.1l4.7-13h2.2l4.7,13h-2.1L49.7,27.9z M45.3,26.3h3.9l-1.9-5.7h-0.1L45.3,26.3z"/>
		<path d="M63.1,26.7c0,2.9-1.6,4.8-3.9,4.8c-1.2,0.1-2.4-0.6-3-1.7h0v4.7h-1.9V22h1.9v1.6h0c0.6-1.1,1.8-1.7,3-1.7
			C61.6,21.9,63.1,23.8,63.1,26.7z M61.2,26.7c0-1.9-1-3.2-2.5-3.2c-1.5,0-2.5,1.3-2.5,3.2c0,1.9,1,3.2,2.5,3.2
			C60.2,29.9,61.2,28.7,61.2,26.7z"/>
		<path d="M73.6,26.7c0,2.9-1.6,4.8-3.9,4.8c-1.2,0.1-2.4-0.6-3-1.7h0v4.7h-1.9V22h1.9v1.6h0c0.6-1.1,1.8-1.7,3-1.7
			C72,21.9,73.6,23.8,73.6,26.7z M71.6,26.7c0-1.9-1-3.2-2.5-3.2c-1.5,0-2.5,1.3-2.5,3.2c0,1.9,1,3.2,2.5,3.2
			C70.6,29.9,71.6,28.7,71.6,26.7L71.6,26.7z"/>
		<path d="M80.4,27.8c0.1,1.3,1.4,2.1,3.1,2.1c1.6,0,2.8-0.8,2.8-2c0-1-0.7-1.6-2.4-2l-1.7-0.4c-2.4-0.6-3.5-1.7-3.5-3.5
			c0-2.2,2-3.8,4.7-3.8c2.7,0,4.6,1.5,4.7,3.8h-2c-0.1-1.3-1.2-2.1-2.8-2.1s-2.6,0.8-2.6,1.9c0,0.9,0.7,1.5,2.4,1.9l1.4,0.4
			c2.7,0.6,3.8,1.7,3.8,3.6c0,2.4-1.9,3.9-5,3.9c-2.9,0-4.8-1.5-4.9-3.8L80.4,27.8z"/>
		<path d="M92.6,19.7V22h1.8v1.5h-1.8v5.2c0,0.8,0.4,1.2,1.2,1.2c0.2,0,0.4,0,0.6,0v1.5c-0.4,0.1-0.7,0.1-1.1,0.1
			c-1.9,0-2.7-0.7-2.7-2.6v-5.4h-1.4V22h1.4v-2.2H92.6z"/>
		<path d="M95.4,26.7c0-3,1.8-4.8,4.5-4.8c2.7,0,4.5,1.9,4.5,4.8c0,3-1.7,4.8-4.5,4.8C97.2,31.6,95.4,29.7,95.4,26.7z M102.4,26.7
			c0-2-0.9-3.2-2.5-3.2c-1.6,0-2.5,1.2-2.5,3.2c0,2,0.9,3.2,2.5,3.2C101.5,30,102.4,28.8,102.4,26.7L102.4,26.7z"/>
		<path d="M106,22h1.9v1.6h0c0.3-1,1.2-1.7,2.3-1.7c0.2,0,0.4,0,0.7,0.1v1.8c-0.3-0.1-0.6-0.1-0.9-0.1c-1.1,0-2,0.8-2,1.9
			c0,0.1,0,0.2,0,0.3v5.6H106L106,22z"/>
		<path d="M119.8,28.7c-0.3,1.7-1.9,2.9-4.1,2.9c-2.8,0-4.5-1.8-4.5-4.8c0-3,1.7-4.9,4.4-4.9c2.6,0,4.3,1.8,4.3,4.7v0.7h-6.7v0.1
			c-0.1,1.4,0.9,2.6,2.2,2.7c0.1,0,0.2,0,0.3,0c0.9,0.1,1.8-0.5,2.2-1.3L119.8,28.7z M113.2,25.8h4.7c0.1-1.3-0.9-2.3-2.1-2.4
			c-0.1,0-0.1,0-0.2,0C114.3,23.4,113.2,24.5,113.2,25.8C113.2,25.8,113.2,25.8,113.2,25.8z"/>
	</g>
	<g id="_Group_4">
		<g>
			<path d="M42.5,11.8c0-2,1.1-3.3,2.8-3.3c1.3-0.1,2.4,0.9,2.6,2.2h-1c-0.2-0.8-0.9-1.3-1.6-1.3c-1.1,0-1.8,0.9-1.8,2.4
				c0,1.5,0.7,2.4,1.8,2.4c0.7,0.1,1.4-0.4,1.6-1.1h1c-0.2,1.3-1.3,2.1-2.6,2.1C43.6,15.1,42.5,13.8,42.5,11.8z"/>
			<path d="M49,12.6c-0.1-1.2,0.8-2.3,2-2.4s2.3,0.8,2.4,2c0,0.1,0,0.3,0,0.4c0.1,1.2-0.8,2.3-2,2.4c-1.2,0.1-2.3-0.8-2.4-2
				C49,12.9,49,12.7,49,12.6z M52.5,12.6c0-1-0.5-1.6-1.3-1.6c-0.8,0-1.3,0.6-1.3,1.6c0,1,0.5,1.6,1.3,1.6
				C52,14.2,52.5,13.6,52.5,12.6z"/>
			<path d="M54.7,10.2h0.9V11h0.1c0.2-0.6,0.8-0.9,1.4-0.8c0.8-0.1,1.6,0.6,1.6,1.4c0,0.1,0,0.2,0,0.3v3h-0.9v-2.8
				c0-0.8-0.3-1.1-1-1.1c-0.6,0-1.1,0.4-1.1,1c0,0.1,0,0.1,0,0.2v2.8h-0.9L54.7,10.2z"/>
			<path d="M61.8,10.1c1.1,0,1.7,0.5,1.8,1.3h-0.9c-0.1-0.3-0.4-0.6-0.9-0.6c-0.5,0-0.9,0.2-0.9,0.6c0,0.3,0.2,0.5,0.7,0.6l0.8,0.2
				c0.9,0.2,1.3,0.6,1.3,1.3c0,0.9-0.8,1.5-1.9,1.5c-1.1,0-1.8-0.5-1.9-1.3h0.9c0.2,0.4,0.6,0.7,1,0.6c0.6,0,1-0.3,1-0.6
				c0-0.3-0.2-0.5-0.7-0.6l-0.8-0.2c-0.9-0.2-1.3-0.6-1.3-1.3C60,10.7,60.8,10.1,61.8,10.1z"/>
			<path d="M64.9,9.5L66,8h1.1l-1.2,1.5H64.9z M65,10.2H66v4.7H65V10.2z"/>
			<path d="M67.4,15.4h0.9c0.1,0.3,0.5,0.6,1.1,0.6c0.8,0,1.2-0.4,1.2-1v-0.9h-0.1c-0.3,0.5-0.9,0.8-1.5,0.8c-1.2,0-1.9-0.9-1.9-2.3
				c0-1.4,0.8-2.4,2-2.4c0.6,0,1.2,0.3,1.5,0.8h0.1v-0.8h0.9V15c0,1.1-0.8,1.8-2.2,1.8C68.3,16.7,67.5,16.2,67.4,15.4z M70.7,12.5
				c0-0.9-0.5-1.5-1.3-1.5c-0.8,0-1.2,0.6-1.2,1.5c0,0.9,0.4,1.5,1.2,1.5C70.2,14.1,70.7,13.5,70.7,12.5z"/>
			<path d="M77.1,14.9h-0.9v-0.7h-0.1c-0.2,0.6-0.8,0.9-1.4,0.8c-0.8,0.1-1.6-0.6-1.6-1.4c0-0.1,0-0.2,0-0.3v-3.1H74V13
				c0,0.8,0.3,1.1,1,1.1c0.6,0.1,1.1-0.4,1.2-1c0-0.1,0-0.1,0-0.2v-2.8h0.9L77.1,14.9z"/>
			<path d="M82.5,13.7c-0.3,0.9-1.1,1.5-2,1.4c-1.2,0-2.2-0.9-2.2-2.1c0-0.1,0-0.2,0-0.3c-0.2-1.2,0.7-2.3,1.9-2.4
				c0.1,0,0.2,0,0.3,0c1.3,0,2.1,0.9,2.1,2.4v0.3h-3.3v0.1c-0.1,0.7,0.5,1.3,1.1,1.3c0,0,0.1,0,0.1,0c0.5,0.1,0.9-0.2,1.1-0.6
				L82.5,13.7z M79.2,12.2h2.4c0-0.6-0.4-1.2-1-1.2c0,0-0.1,0-0.1,0C79.8,10.9,79.3,11.5,79.2,12.2C79.2,12.1,79.2,12.1,79.2,12.2z"
				/>
			<path d="M83.9,8.4h0.9v6.5h-0.9V8.4z"/>
			<path d="M86.1,12.6c-0.1-1.2,0.8-2.3,2-2.4c1.2-0.1,2.3,0.8,2.4,2c0,0.1,0,0.3,0,0.4c0.1,1.2-0.8,2.3-2,2.4
				c-1.2,0.1-2.3-0.8-2.4-2C86.1,12.9,86.1,12.7,86.1,12.6z M89.6,12.6c0-1-0.5-1.6-1.3-1.6c-0.8,0-1.3,0.6-1.3,1.6
				c0,1,0.5,1.6,1.3,1.6C89.1,14.2,89.6,13.6,89.6,12.6z"/>
			<path d="M98.3,13.7c-0.3,0.9-1.1,1.5-2,1.4c-1.2,0-2.2-0.9-2.2-2.1c0-0.1,0-0.2,0-0.3c-0.2-1.2,0.7-2.3,1.9-2.4
				c0.1,0,0.2,0,0.3,0c1.3,0,2.1,0.9,2.1,2.4v0.3H95v0.1c-0.1,0.7,0.5,1.3,1.1,1.3c0,0,0.1,0,0.1,0c0.5,0.1,0.9-0.2,1.1-0.6
				L98.3,13.7z M95,12.2h2.4c0-0.6-0.4-1.2-1-1.2c0,0-0.1,0-0.1,0C95.6,10.9,95,11.5,95,12.2C95,12.1,95,12.1,95,12.2L95,12.2z"/>
			<path d="M99.6,10.2h0.9V11h0.1c0.2-0.6,0.8-0.9,1.4-0.8c0.8-0.1,1.6,0.6,1.6,1.4c0,0.1,0,0.2,0,0.3v3h-0.9v-2.8
				c0-0.8-0.3-1.1-1-1.1c-0.6,0-1.1,0.4-1.1,1c0,0.1,0,0.1,0,0.2v2.8h-0.9L99.6,10.2z"/>
			<path d="M111.6,13.7c-0.3,0.9-1.1,1.5-2,1.4c-1.2,0-2.2-0.9-2.2-2.1c0-0.1,0-0.2,0-0.3c-0.2-1.2,0.7-2.3,1.9-2.4
				c0.1,0,0.2,0,0.3,0c1.3,0,2.1,0.9,2.1,2.4v0.3h-3.3v0.1c-0.1,0.7,0.5,1.3,1.1,1.3c0,0,0.1,0,0.1,0c0.5,0.1,0.9-0.2,1.1-0.6
				L111.6,13.7z M108.3,12.2h2.4c0-0.6-0.4-1.2-1-1.2c0,0-0.1,0-0.1,0C108.8,10.9,108.3,11.5,108.3,12.2
				C108.3,12.1,108.3,12.1,108.3,12.2L108.3,12.2z"/>
			<path d="M112.9,8.4h0.9v6.5h-0.9V8.4z"/>
		</g>
	</g>
</g>
</svg>
